<svg width="569" height="464" viewBox="0 0 569 464" fill="none" xmlns="http://www.w3.org/2000/svg">
<path d="M125.038 35.5888H24.6696V248.6H125.038V35.5888Z" fill="#FAFAFA"/>
<path d="M55.9378 250.637C55.9378 250.637 44.9311 154.811 39.1795 144.274C39.1795 144.274 72.064 114.329 73.0662 33.1573H23.1707V250.637H55.9378Z" fill="#F5F5F5"/>
<path d="M93.7612 250.221C93.7612 250.221 104.75 154.384 110.51 143.858C110.51 143.858 77.6351 113.902 76.6238 32.7411H126.519V250.221H93.7612Z" fill="#F5F5F5"/>
<path d="M127.675 27.4727H15.3694V255.643H132.334V27.4727H127.675ZM44.8409 146.016V200.276H24.6695V146.016H44.8409ZM24.6695 142.094V85.9391H44.8409V142.094H24.6695ZM75.5493 142.094V85.9391H100.831V142.094H75.5493ZM100.831 146.016V200.276H75.5493V146.016H100.831ZM45.7528 142.094V85.9391H72.3258V142.094H45.7528ZM72.3258 146.016V200.276H45.7438V146.016H72.3258ZM45.7438 84.9314V35.6435H72.3168V84.9314H45.7438ZM72.3168 201.251V248.622H45.7438V201.251H72.3168ZM75.5493 201.251H100.831V248.622H75.5493V201.251ZM75.5493 84.9643V35.6435H100.831V84.9314L75.5493 84.9643ZM101.68 146.016H123.025V200.276H101.68V146.016ZM101.68 142.094V85.9391H123.025V142.094H101.68ZM123.025 84.9314H101.68V35.6435H123.025V84.9314ZM44.8409 35.6435V84.9314H24.6695V35.6435H44.8409ZM24.6695 201.251H44.8409V248.622H24.6695V201.251ZM101.68 248.622V201.251H123.025V248.622H101.68Z" fill="#EBEBEB"/>
<path d="M466.777 77.7902H161.399V325.895H466.777V77.7902Z" fill="#F5F5F5"/>
<path d="M466.777 77.7902H161.399V102.577H466.777V77.7902Z" fill="#EBEBEB"/>
<path d="M174.627 90.1779C174.663 90.7793 174.549 91.38 174.3 91.9018C174.051 92.4235 173.678 92.842 173.23 93.1028C172.781 93.3636 172.279 93.4546 171.787 93.3638C171.296 93.2731 170.838 93.0049 170.474 92.5941C170.11 92.1833 169.857 91.6491 169.747 91.061C169.637 90.473 169.676 89.8583 169.858 89.2972C170.04 88.7362 170.357 88.2547 170.768 87.9155C171.179 87.5763 171.665 87.3953 172.162 87.3959C172.793 87.3692 173.407 87.6472 173.869 88.1687C174.331 88.6902 174.603 89.4128 174.627 90.1779Z" fill="#FAFAFA"/>
<path d="M182.591 90.1779C182.627 90.7793 182.513 91.38 182.264 91.9018C182.015 92.4235 181.642 92.842 181.193 93.1028C180.745 93.3636 180.243 93.4546 179.751 93.3638C179.26 93.2731 178.802 93.0049 178.438 92.5941C178.074 92.1833 177.821 91.6491 177.711 91.061C177.601 90.473 177.639 89.8583 177.821 89.2972C178.004 88.7362 178.321 88.2547 178.732 87.9155C179.143 87.5763 179.629 87.3953 180.126 87.3959C180.757 87.3692 181.37 87.6472 181.833 88.1687C182.295 88.6902 182.567 89.4128 182.591 90.1779Z" fill="#FAFAFA"/>
<path d="M190.555 90.1779C190.591 90.7793 190.477 91.38 190.228 91.9018C189.978 92.4235 189.605 92.842 189.157 93.1028C188.709 93.3636 188.206 93.4546 187.715 93.3638C187.223 93.2731 186.766 93.0049 186.402 92.5941C186.038 92.1833 185.784 91.6491 185.674 91.061C185.564 90.473 185.603 89.8583 185.785 89.2972C185.967 88.7362 186.285 88.2547 186.696 87.9155C187.107 87.5763 187.592 87.3953 188.09 87.3959C188.72 87.3692 189.334 87.6472 189.796 88.1687C190.258 88.6902 190.531 89.4128 190.555 90.1779Z" fill="#FAFAFA"/>
<path d="M560.266 126.815H498.912V223.869L560.266 225.742V126.815Z" fill="#EBEBEB"/>
<path d="M556.229 130.276H502.542V218.294L556.229 220.495V130.276Z" fill="#FAFAFA"/>
<path d="M546.83 146.268L511.201 144.625V206.147H546.83V146.268Z" fill="#EBEBEB"/>
<path d="M511.201 206.147L546.83 174.537L511.201 144.625V206.147Z" fill="#F5F5F5"/>
<path d="M553.503 58.5241L519.354 57.2317V111.251L553.503 112.292V58.5241Z" fill="#EBEBEB"/>
<path d="M551.254 60.879L521.377 59.1594V108.141L551.254 109.367V60.879Z" fill="#FAFAFA"/>
<path d="M546.026 68.053L526.198 67.1439V101.383H546.026V68.053Z" fill="#EBEBEB"/>
<path d="M526.198 101.383L546.026 83.7923L526.198 67.1439V101.383Z" fill="#F5F5F5"/>
<path d="M318.571 12.7739L315.302 49.5975H357.207L360.683 12.7739H318.571Z" fill="#EBEBEB"/>
<path d="M320.296 15.1945L317.108 47.4179H354.932L357.993 15.1945H320.296Z" fill="#FAFAFA"/>
<path d="M326.661 20.8353L324.702 42.2263H348.566L349.794 20.8353H326.661Z" fill="#EBEBEB"/>
<path d="M373.252 0.276764L368.864 49.5975H425.008L429.667 0.276764H373.252Z" fill="#EBEBEB"/>
<path d="M375.555 3.5188L371.293 46.684H421.965L426.064 3.5188H375.555Z" fill="#FAFAFA"/>
<path d="M384.087 11.0762L381.46 39.718H413.432L415.075 11.0762H384.087Z" fill="#EBEBEB"/>
<path d="M450.624 49.5975H287.122V55.2712H450.624V49.5975Z" fill="#EBEBEB"/>
<path d="M315.095 69.0716L307.935 55.2711H318.571V69.0716H315.095Z" fill="#EBEBEB"/>
<path d="M311.393 55.2711L317.722 69.0716H318.571V55.2711H311.393Z" fill="#E0E0E0"/>
<path d="M409.432 69.0716L402.272 55.2711H412.908V69.0716H409.432Z" fill="#EBEBEB"/>
<path d="M405.73 55.2711L412.06 69.0716H412.908V55.2711H405.73Z" fill="#E0E0E0"/>
<path d="M91.54 386.891C106.592 374.952 110.411 352.072 110.24 331.415C110.24 327.965 110.601 324.339 109.291 321.272C107.982 318.206 104.831 316.059 102.222 317.428C100.064 318.578 99.0704 321.524 97.8244 324C96.1532 327.248 93.7585 329.857 90.917 331.524C89.066 332.62 86.7816 333.233 84.9938 331.984C82.5469 330.276 82.3392 326.157 82.4205 322.729L82.9081 303.573C83.1521 300.149 82.9294 296.7 82.2489 293.365C81.4273 290.079 79.5402 287.012 76.8314 286.015C74.1226 285.019 70.7186 286.804 70.0775 290.144C69.9417 291.562 69.8874 292.989 69.915 294.416C69.8067 295.829 69.2198 297.395 68.1092 297.702C66.9986 298.009 65.8338 297.067 64.9941 296.037C62.1138 292.488 60.1905 287.976 58.4118 283.485C56.633 278.994 54.8633 274.416 52.2448 270.561C49.6263 266.705 45.9966 263.606 41.8973 263.211C37.798 262.817 33.3737 265.72 32.2902 270.506C31.2067 275.292 33.4098 280.287 35.9019 284.274C39.5935 290.193 43.9696 295.434 48.895 299.838C49.8579 300.509 50.6176 301.538 51.062 302.773C51.6398 305.073 49.7888 307.286 47.8837 307.987C45.7347 308.775 43.4232 308.447 41.184 308.688C38.9447 308.929 36.5068 310.046 35.613 312.554C34.3669 316.026 36.7416 319.761 39.0982 322.236C43.8368 327.207 49.2422 331.156 55.08 333.912C57.1657 334.887 59.3598 335.763 61.0212 337.581C62.6826 339.399 63.6487 342.521 62.5742 344.898C61.4998 347.275 58.8542 347.986 56.6511 347.428C54.4479 346.869 52.5157 345.391 50.4299 344.372C46.5293 342.477 41.4007 342.663 38.8454 346.661C38.0484 348.034 37.5279 349.613 37.3256 351.274C37.1233 352.935 37.2449 354.63 37.6807 356.223C38.5825 359.399 40.0011 362.323 41.8522 364.821C47.9341 373.991 55.9049 381.049 64.958 385.281C73.9872 389.334 82.4476 390.604 91.5942 386.891" fill="#FF725E"/>
<path d="M36.4707 265.928L36.7416 266.256L37.5723 267.198C38.3127 268.009 39.3781 269.214 40.7506 270.802C44.593 275.286 48.1516 280.116 51.396 285.249C53.4637 288.534 55.6036 292.149 57.8429 296.136C60.0821 300.123 62.4478 304.394 64.7864 309.005C67.2647 313.803 69.5254 318.761 71.5583 323.857C72.6057 326.508 73.5357 329.279 74.4838 332.105L77.346 340.692C81.0413 351.559 84.2248 362.672 86.8809 373.978C89.0196 383.214 90.4284 392.676 91.0885 402.236C91.5142 408.687 91.472 415.17 90.9621 421.612C90.7725 423.89 90.5919 425.653 90.4294 426.847C90.3662 427.417 90.312 427.866 90.2669 428.205C90.2589 428.359 90.2589 428.512 90.2669 428.665C90.3146 428.522 90.345 428.37 90.3572 428.216L90.5739 426.869C90.7635 425.675 90.9802 423.912 91.2059 421.634C91.7946 415.181 91.8913 408.677 91.4948 402.203C90.8809 392.604 89.4989 383.099 87.3685 373.824C84.7332 362.489 81.5556 351.349 77.8517 340.462L74.9894 331.864C74.0413 329.049 73.1023 326.256 72.0368 323.595C69.9983 318.477 67.7223 313.504 65.2198 308.699C62.8541 304.087 60.4794 299.816 58.2221 295.829C55.9648 291.842 53.8068 288.162 51.712 284.975C48.4241 279.847 44.8006 275.048 40.877 270.627C39.4955 269.06 38.3939 267.877 37.6355 267.1L36.7326 266.213C36.6531 266.107 36.5654 266.012 36.4707 265.928Z" fill="#263238"/>
<path d="M71.8743 323.562C72.0216 323.092 72.1246 322.603 72.1813 322.105C72.3529 321.163 72.5605 319.794 72.7953 318.096C73.2648 314.69 73.7885 309.969 74.3483 304.756C74.9082 299.542 75.477 294.843 75.9917 291.459C76.2445 289.761 76.4612 288.403 76.6237 287.45C76.7312 286.967 76.7948 286.471 76.8134 285.971C76.6396 286.426 76.5093 286.904 76.4251 287.395C76.2084 288.326 75.9285 289.684 75.6305 291.371C75.0165 294.745 74.3845 299.454 73.8246 304.668C73.2648 309.881 72.7953 314.471 72.4251 318.019C72.2445 319.63 72.1 320.977 71.9827 322.061C71.898 322.554 71.8616 323.058 71.8743 323.562Z" fill="#263238"/>
<path d="M35.2247 314.263C35.7049 314.4 36.1945 314.485 36.6874 314.515C37.5903 314.646 38.9989 314.821 40.6783 315.095C44.0372 315.632 48.6692 316.563 53.7256 317.855C58.7819 319.148 63.3327 320.582 66.5922 321.722C68.2265 322.269 69.5358 322.762 70.4477 323.102C70.909 323.314 71.3871 323.468 71.8743 323.562C71.4374 323.281 70.9812 323.046 70.5109 322.861C69.608 322.455 68.3258 321.897 66.7006 321.283C63.4591 320.035 58.9174 318.545 53.8339 317.231C48.7505 315.917 44.1094 315.04 40.7235 314.646C39.035 314.427 37.6535 314.317 36.7055 314.263C36.213 314.206 35.7172 314.206 35.2247 314.263Z" fill="#263238"/>
<path d="M86.9171 372.992C87.0262 372.83 87.1145 372.649 87.1789 372.455L87.838 370.878C88.4159 369.509 89.1924 367.505 90.1315 364.996C92.0095 360.002 94.4203 353.003 96.9937 345.281C99.567 337.559 101.924 330.495 103.72 325.456C104.623 323.003 105.31 320.988 105.851 319.498L106.42 317.866C106.494 317.68 106.551 317.486 106.592 317.286C106.482 317.445 106.391 317.622 106.321 317.811C106.149 318.238 105.924 318.764 105.662 319.388C105.093 320.758 104.316 322.773 103.377 325.27C101.499 330.265 99.0884 337.318 96.5061 345.04C93.9237 352.762 91.5761 359.827 89.7883 364.865L87.6575 370.801L87.0886 372.422C87.0099 372.602 86.9522 372.793 86.9171 372.992Z" fill="#263238"/>
<path d="M38.3849 352.707C38.5335 352.819 38.6947 352.904 38.8634 352.959L40.272 353.573L45.4728 355.763C49.8611 357.614 55.8926 360.243 62.5562 363.167C69.2197 366.092 75.2874 368.644 79.7117 370.385C81.9239 371.261 83.7207 371.94 84.9667 372.379L86.4024 372.882C86.5693 372.949 86.742 372.994 86.9171 373.014C86.7678 372.901 86.6069 372.813 86.4385 372.751L85.0299 372.149L79.8291 369.958C75.4409 368.118 69.4094 365.489 62.7367 362.565C56.0641 359.64 50.0146 357.088 45.5812 355.336C43.369 354.471 41.5722 353.792 40.3262 353.343L38.8905 352.85C38.7282 352.774 38.5581 352.726 38.3849 352.707Z" fill="#263238"/>
<path d="M501.44 428.381C501.44 428.545 400.186 428.666 275.303 428.666C150.42 428.666 49.1478 428.545 49.1478 428.381C49.1478 428.216 150.384 428.096 275.303 428.096C400.222 428.096 501.44 428.227 501.44 428.381Z" fill="#263238"/>
<path d="M418.037 98.8854H110.655C109.395 98.8854 108.147 99.1867 106.983 99.7719C105.819 100.357 104.762 101.215 103.871 102.296C102.981 103.378 102.275 104.661 101.793 106.074C101.312 107.486 101.065 109 101.066 110.528V373.89C101.065 375.418 101.312 376.932 101.793 378.345C102.275 379.757 102.981 381.041 103.871 382.122C104.762 383.203 105.819 384.061 106.983 384.646C108.147 385.232 109.395 385.533 110.655 385.533H228.631C228.631 385.533 236.134 413.682 212.866 428.249H323.176C323.176 428.249 296.919 417.296 303.673 385.533H418.037C420.583 385.533 423.024 384.306 424.824 382.123C426.624 379.939 427.635 376.978 427.635 373.89V110.528C427.635 107.44 426.624 104.479 424.824 102.296C423.024 100.112 420.583 98.8854 418.037 98.8854Z" fill="#263238"/>
<path d="M268.775 357.735C272.955 364.985 266.409 372.926 260.432 367.855C260.232 367.684 260.058 367.473 259.917 367.231C255.746 359.98 262.283 352.05 268.26 357.11C268.46 357.281 268.634 357.492 268.775 357.735Z" fill="#455A64"/>
<path d="M417.423 112.193H111.269C109.638 112.193 108.316 113.797 108.316 115.775V333.145C108.316 335.123 109.638 336.727 111.269 336.727H417.423C419.054 336.727 420.376 335.123 420.376 333.145V115.775C420.376 113.797 419.054 112.193 417.423 112.193Z" fill="#E0E0E0"/>
<path d="M420.376 128.644H108.316V336.727H420.376V128.644Z" fill="#FAFAFA"/>
<path d="M133.914 120.857C133.914 121.455 133.768 122.039 133.494 122.536C133.22 123.034 132.831 123.421 132.376 123.65C131.92 123.879 131.419 123.938 130.936 123.822C130.453 123.705 130.008 123.417 129.66 122.994C129.311 122.572 129.074 122.033 128.978 121.447C128.882 120.86 128.931 120.252 129.12 119.7C129.308 119.148 129.628 118.676 130.038 118.343C130.447 118.011 130.929 117.834 131.422 117.834C132.083 117.834 132.717 118.152 133.184 118.719C133.652 119.286 133.914 120.055 133.914 120.857Z" fill="#FF725E"/>
<path d="M118.808 120.857C118.808 121.455 118.662 122.039 118.388 122.536C118.115 123.034 117.725 123.421 117.27 123.65C116.815 123.879 116.313 123.938 115.83 123.822C115.347 123.705 114.903 123.417 114.554 122.994C114.206 122.572 113.968 122.033 113.872 121.447C113.776 120.86 113.825 120.252 114.014 119.7C114.202 119.148 114.522 118.676 114.932 118.343C115.342 118.011 115.823 117.834 116.316 117.834C116.977 117.834 117.611 118.152 118.078 118.719C118.546 119.286 118.808 120.055 118.808 120.857Z" fill="#FF725E"/>
<path d="M126.059 120.857C126.059 121.455 125.913 122.039 125.639 122.536C125.365 123.034 124.976 123.421 124.52 123.65C124.065 123.879 123.564 123.938 123.081 123.822C122.597 123.705 122.153 123.417 121.805 122.994C121.456 122.572 121.219 122.033 121.123 121.447C121.026 120.86 121.076 120.252 121.264 119.7C121.453 119.148 121.772 118.676 122.182 118.343C122.592 118.011 123.074 117.834 123.567 117.834C124.228 117.834 124.862 118.152 125.329 118.719C125.796 119.286 126.059 120.055 126.059 120.857Z" fill="#FF725E"/>
<path d="M262.075 225.534C262.075 225.698 250.644 225.841 236.55 225.841C222.455 225.841 211.015 225.698 211.015 225.534C211.015 225.369 222.446 225.227 236.55 225.227C250.653 225.227 262.075 225.358 262.075 225.534Z" fill="#455A64"/>
<path d="M262.075 233.825C262.075 233.99 250.644 234.132 236.55 234.132C222.455 234.132 211.015 233.99 211.015 233.825C211.015 233.661 222.446 233.507 236.55 233.507C250.653 233.507 262.075 233.65 262.075 233.825Z" fill="#455A64"/>
<path d="M241.615 242.105C241.615 242.281 234.771 242.423 226.319 242.423C217.868 242.423 211.015 242.281 211.015 242.105C211.015 241.93 217.868 241.798 226.319 241.798C234.771 241.798 241.615 241.941 241.615 242.105Z" fill="#455A64"/>
<path d="M235.294 140.824H211.015V144.559H235.294V140.824Z" fill="#455A64"/>
<path d="M264.369 152.861H211.015V215.479H264.369V152.861Z" fill="#E0E0E0"/>
<path d="M215.15 210.112L229.913 177.888L241.985 198.491L249.317 187.549L260.233 210.112H215.15Z" fill="#FF725E"/>
<path d="M243.285 176.278C245.405 176.278 247.123 174.194 247.123 171.623C247.123 169.052 245.405 166.968 243.285 166.968C241.166 166.968 239.448 169.052 239.448 171.623C239.448 174.194 241.166 176.278 243.285 176.278Z" fill="#FF725E"/>
<path d="M260.233 210.287C260.223 210.203 260.223 210.119 260.233 210.035C260.233 209.838 260.233 209.608 260.233 209.301C260.233 208.633 260.233 207.691 260.233 206.486C260.233 204 260.233 200.408 260.179 195.851C260.179 186.705 260.116 173.683 260.071 158.042L260.287 158.305H215.213C215.15 158.37 215.683 157.724 215.457 158.009V172.051C215.457 176.651 215.457 181.163 215.457 185.544C215.457 194.307 215.457 202.609 215.457 210.232L215.231 209.958L247.827 210.101L257.019 210.167H259.457H260.089H259.484H257.082L247.944 210.232L215.204 210.375H214.988V210.101C214.988 202.434 214.988 194.186 214.988 185.413C214.988 181.032 214.988 176.519 214.988 171.919V158.064C214.762 158.327 215.295 157.669 215.25 157.746H260.323H260.54V158.009C260.495 173.715 260.459 186.793 260.432 195.983C260.432 200.517 260.387 204.088 260.369 206.563C260.369 207.746 260.369 208.666 260.369 209.323C260.369 209.619 260.369 209.849 260.369 210.024C260.33 210.116 260.284 210.204 260.233 210.287Z" fill="#455A64"/>
<path d="M327.122 225.534C327.122 225.698 315.691 225.841 301.587 225.841C287.483 225.841 276.061 225.698 276.061 225.534C276.061 225.369 287.483 225.227 301.587 225.227C315.691 225.227 327.122 225.358 327.122 225.534Z" fill="#455A64"/>
<path d="M327.122 233.825C327.122 233.99 315.691 234.132 301.587 234.132C287.483 234.132 276.061 233.99 276.061 233.825C276.061 233.661 287.483 233.507 301.587 233.507C315.691 233.507 327.122 233.65 327.122 233.825Z" fill="#455A64"/>
<path d="M306.661 242.105C306.661 242.281 299.808 242.423 291.357 242.423C282.906 242.423 276.079 242.281 276.079 242.105C276.079 241.93 282.924 241.798 291.375 241.798C299.826 241.798 306.661 241.941 306.661 242.105Z" fill="#455A64"/>
<path d="M300.341 140.824H276.061V144.559H300.341V140.824Z" fill="#455A64"/>
<path d="M329.415 152.861H276.061V215.479H329.415V152.861Z" fill="#E0E0E0"/>
<path d="M280.197 210.112L294.951 177.888L307.023 198.491L314.363 187.549L325.271 210.112H280.197Z" fill="#FF725E"/>
<path d="M312.196 171.623C312.198 172.547 311.974 173.451 311.552 174.22C311.13 174.989 310.529 175.588 309.826 175.943C309.123 176.297 308.349 176.391 307.602 176.211C306.855 176.031 306.169 175.587 305.63 174.934C305.092 174.28 304.725 173.448 304.577 172.542C304.429 171.636 304.506 170.697 304.798 169.844C305.09 168.991 305.585 168.262 306.219 167.75C306.853 167.238 307.597 166.966 308.359 166.968C309.377 166.968 310.353 167.459 311.072 168.332C311.792 169.205 312.196 170.389 312.196 171.623Z" fill="#FF725E"/>
<path d="M325.271 210.287C325.271 210.287 325.271 210.199 325.271 210.035C325.271 209.871 325.271 209.608 325.271 209.301C325.271 208.633 325.271 207.691 325.271 206.486C325.271 204 325.271 200.408 325.217 195.851C325.217 186.705 325.144 173.683 325.099 158.042L325.316 158.305H280.242C280.179 158.37 280.721 157.724 280.495 158.009V172.051C280.495 176.651 280.495 181.163 280.495 185.544C280.495 194.307 280.495 202.609 280.495 210.232L280.278 209.958L312.874 210.101L322.065 210.167H324.503H325.135H324.521H322.129L312.982 210.232L280.251 210.375H280.025V210.101C280.025 202.434 280.025 194.186 280.025 185.413V158.064C279.79 158.327 280.332 157.669 280.278 157.746H325.352H325.578V158.009C325.524 173.715 325.487 186.793 325.46 195.983C325.46 200.517 325.415 204.088 325.406 206.563C325.406 207.746 325.406 208.666 325.406 209.323C325.406 209.619 325.406 209.849 325.406 210.024C325.373 210.12 325.328 210.209 325.271 210.287Z" fill="#455A64"/>
<path d="M237.001 253.66H212.721V257.395H237.001V253.66Z" fill="#455A64"/>
<path d="M266.075 265.687H212.721V328.304H266.075V265.687Z" fill="#E0E0E0"/>
<path d="M216.857 322.948L231.62 290.725L243.692 311.316L251.023 300.385L261.94 322.948H216.857Z" fill="#FF725E"/>
<path d="M248.838 284.46C248.838 285.383 248.613 286.285 248.19 287.052C247.767 287.819 247.167 288.418 246.464 288.771C245.761 289.124 244.988 289.216 244.241 289.036C243.495 288.856 242.81 288.412 242.272 287.759C241.734 287.107 241.368 286.275 241.219 285.37C241.071 284.465 241.147 283.527 241.438 282.674C241.729 281.822 242.222 281.093 242.855 280.58C243.487 280.068 244.231 279.794 244.992 279.794C245.497 279.792 245.998 279.912 246.465 280.146C246.932 280.38 247.357 280.724 247.714 281.157C248.072 281.591 248.355 282.106 248.548 282.673C248.741 283.239 248.839 283.847 248.838 284.46Z" fill="#FF725E"/>
<path d="M261.94 323.123C261.94 323.123 261.94 323.025 261.94 322.861C261.94 322.696 261.94 322.433 261.94 322.127C261.94 321.47 261.94 320.528 261.94 319.312C261.94 316.837 261.94 313.244 261.876 308.677C261.876 299.531 261.813 286.508 261.768 270.878L261.985 271.141H216.911L217.164 270.835V274.416C217.164 275.599 217.164 276.782 217.164 277.954V298.425C217.164 307.187 217.164 315.478 217.164 323.113L216.938 322.839L249.533 322.981L258.725 323.047H261.172H261.804C261.876 323.038 261.949 323.038 262.021 323.047H261.217H258.825L249.678 323.123L216.938 323.255H216.721V322.992C216.721 315.325 216.721 307.067 216.721 298.304C216.721 293.923 216.721 289.425 216.721 284.81V270.878L216.983 270.561H262.057H262.274V270.835C262.229 286.541 262.192 299.619 262.165 308.808C262.165 313.343 262.165 316.913 262.111 319.378C262.111 320.571 262.111 321.491 262.111 322.149C262.111 322.433 262.111 322.663 262.111 322.85C262.073 322.956 262.014 323.05 261.94 323.123Z" fill="#455A64"/>
<path d="M302.093 253.66H277.813V257.395H302.093V253.66Z" fill="#455A64"/>
<path d="M331.167 265.687H277.813V328.304H331.167V265.687Z" fill="#E0E0E0"/>
<path d="M281.948 322.948L296.711 290.725L308.783 311.316L316.115 300.385L327.031 322.948H281.948Z" fill="#FF725E"/>
<path d="M313.921 284.46C313.919 285.38 313.693 286.279 313.27 287.043C312.847 287.807 312.247 288.402 311.546 288.753C310.845 289.103 310.073 289.194 309.329 289.013C308.586 288.832 307.903 288.388 307.367 287.737C306.831 287.085 306.467 286.256 306.319 285.353C306.172 284.45 306.248 283.515 306.539 282.665C306.83 281.815 307.322 281.089 307.953 280.578C308.583 280.067 309.325 279.794 310.084 279.794C310.588 279.794 311.088 279.915 311.554 280.149C312.02 280.384 312.444 280.728 312.8 281.161C313.157 281.595 313.439 282.109 313.631 282.675C313.824 283.241 313.922 283.848 313.921 284.46Z" fill="#FF725E"/>
<path d="M327.031 323.123C327.025 323.036 327.025 322.948 327.031 322.861C327.031 322.674 327.031 322.433 327.031 322.127C327.031 321.47 327.031 320.528 327.031 319.312C327.031 316.836 327.031 313.244 326.977 308.677C326.977 299.531 326.914 286.508 326.869 270.878L327.086 271.141H282.003L282.255 270.835V284.898C282.255 289.498 282.255 293.996 282.255 298.392C282.255 307.154 282.255 315.445 282.255 323.08L282.03 322.806L314.625 322.948L323.817 323.014H326.255H326.887H327.113H326.309H323.907L314.77 323.091L282.03 323.222H281.804V322.959C281.804 315.292 281.804 307.034 281.804 298.271C281.804 293.89 281.804 289.392 281.804 284.778V270.878L282.057 270.561H327.14H327.356V270.835C327.311 286.541 327.275 299.619 327.248 308.808C327.248 313.343 327.203 316.913 327.185 319.378C327.185 320.571 327.185 321.491 327.185 322.149C327.185 322.433 327.185 322.663 327.185 322.85C327.141 322.946 327.089 323.038 327.031 323.123Z" fill="#455A64"/>
<path d="M369.252 253.66H344.973V257.395H369.252V253.66Z" fill="#455A64"/>
<path d="M398.326 265.687H344.973V328.304H398.326V265.687Z" fill="#E0E0E0"/>
<path d="M349.108 322.948L363.871 290.725L375.943 311.316L383.275 300.385L394.191 322.948H349.108Z" fill="#FF725E"/>
<path d="M381.089 284.46C381.089 285.383 380.864 286.285 380.441 287.052C380.019 287.819 379.418 288.418 378.715 288.771C378.012 289.124 377.239 289.216 376.493 289.036C375.746 288.856 375.061 288.412 374.523 287.759C373.985 287.107 373.619 286.275 373.47 285.37C373.322 284.465 373.398 283.527 373.689 282.674C373.98 281.822 374.473 281.093 375.106 280.58C375.739 280.068 376.482 279.794 377.243 279.794C377.748 279.792 378.249 279.912 378.716 280.146C379.184 280.38 379.608 280.724 379.966 281.157C380.323 281.591 380.606 282.106 380.799 282.673C380.992 283.239 381.091 283.847 381.089 284.46Z" fill="#FF725E"/>
<path d="M394.191 323.123C394.191 323.123 394.191 323.025 394.191 322.861C394.191 322.696 394.191 322.433 394.191 322.127C394.191 321.47 394.191 320.528 394.191 319.312C394.191 316.836 394.191 313.244 394.128 308.677C394.128 299.531 394.064 286.508 394.019 270.878L394.236 271.141H349.162L349.415 270.835V298.392C349.415 307.154 349.415 315.445 349.415 323.08L349.189 322.806L381.785 322.948L390.976 323.014H393.423H394.046C394.121 323.005 394.197 323.005 394.272 323.014H393.468H391.076L381.929 323.091L349.189 323.222H348.972V322.959C348.972 315.292 348.972 307.034 348.972 298.271C348.972 293.89 348.972 289.392 348.972 284.778V270.878L349.234 270.561H394.308H394.525V270.835C394.48 286.541 394.444 299.619 394.417 308.808C394.417 313.343 394.371 316.913 394.362 319.378C394.362 320.571 394.362 321.491 394.362 322.149C394.362 322.433 394.362 322.663 394.362 322.85C394.324 322.956 394.265 323.05 394.191 323.123Z" fill="#455A64"/>
<path d="M393.333 215.468C395.273 215.165 397.23 215.062 399.184 215.161L398.931 215.468V214.767C398.931 214.526 398.931 214.296 398.931 214.066C398.931 213.606 398.931 213.168 398.931 212.729C398.931 211.952 398.931 211.196 398.985 210.473C398.958 209.772 399.019 209.071 399.166 208.392C399.301 209.073 399.359 209.773 399.338 210.473C399.338 211.196 399.338 211.952 399.392 212.729C399.392 213.168 399.392 213.606 399.392 214.066V215.468L399.13 215.785C397.194 215.887 395.254 215.78 393.333 215.468Z" fill="#455A64"/>
<path d="M366.724 215.468C371.154 215.059 375.603 215.059 380.033 215.468C375.604 215.892 371.153 215.892 366.724 215.468Z" fill="#455A64"/>
<path d="M347.564 208.37C347.819 210.723 347.904 213.097 347.817 215.468L347.564 215.161H349.848L351.708 215.227C352.286 215.208 352.862 215.282 353.424 215.446C352.864 215.623 352.286 215.697 351.708 215.665L349.848 215.731H348.747H347.564L347.311 215.413C347.232 213.061 347.317 210.705 347.564 208.37Z" fill="#455A64"/>
<path d="M347.564 176.092C347.82 178.771 347.905 181.47 347.818 184.164C347.905 186.855 347.82 189.551 347.564 192.226C347.314 189.55 347.229 186.855 347.311 184.164C347.23 181.47 347.314 178.772 347.564 176.092Z" fill="#455A64"/>
<path d="M353.424 152.839C351.482 153.148 349.521 153.251 347.564 153.146L347.817 152.839V154.252C347.817 154.701 347.817 155.15 347.817 155.588C347.817 156.366 347.817 157.111 347.763 157.845C347.789 158.545 347.728 159.247 347.582 159.926C347.436 159.247 347.375 158.545 347.401 157.845C347.401 157.111 347.401 156.366 347.347 155.588C347.347 155.15 347.347 154.701 347.347 154.252C347.347 154.022 347.347 153.781 347.347 153.54V152.839L347.6 152.533C349.545 152.437 351.493 152.539 353.424 152.839Z" fill="#455A64"/>
<path d="M380.033 152.84C375.603 153.249 371.154 153.249 366.724 152.84C371.154 152.43 375.603 152.43 380.033 152.84Z" fill="#455A64"/>
<path d="M399.193 159.959C398.932 157.603 398.845 155.224 398.931 152.85C399.446 153.464 399.076 153.025 399.184 153.157H397.974H396.873L395.013 153.091C394.435 153.123 393.857 153.049 393.297 152.872C393.857 152.695 394.435 152.621 395.013 152.653L396.873 152.587H399.148L399.41 152.894C399.501 155.252 399.428 157.615 399.193 159.959Z" fill="#455A64"/>
<path d="M399.193 192.27C398.932 189.595 398.844 186.899 398.931 184.208C398.844 181.513 398.932 178.814 399.193 176.136C399.443 178.815 399.527 181.514 399.446 184.208C399.527 186.899 399.443 189.594 399.193 192.27Z" fill="#455A64"/>
<path d="M398.444 225.446C398.444 225.611 387.004 225.753 372.909 225.753C358.814 225.753 347.374 225.611 347.374 225.446C347.374 225.282 358.805 225.139 372.909 225.139C387.013 225.139 398.444 225.271 398.444 225.446Z" fill="#455A64"/>
<path d="M398.444 233.737C398.444 233.902 387.004 234.044 372.909 234.044C358.814 234.044 347.41 233.891 347.41 233.737C347.41 233.584 358.841 233.419 372.945 233.419C387.049 233.419 398.444 233.562 398.444 233.737Z" fill="#455A64"/>
<path d="M371.654 140.736H347.374V144.471H371.654V140.736Z" fill="#455A64"/>
<path d="M186.194 189.466C186.194 195.748 184.658 201.889 181.781 207.112C178.903 212.336 174.814 216.407 170.029 218.811C165.245 221.215 159.98 221.844 154.9 220.619C149.821 219.393 145.155 216.368 141.493 211.926C137.831 207.483 135.337 201.824 134.327 195.662C133.317 189.501 133.835 183.114 135.817 177.31C137.799 171.506 141.155 166.546 145.461 163.055C149.767 159.565 154.83 157.702 160.009 157.702C166.953 157.702 173.614 161.049 178.524 167.006C183.435 172.962 186.194 181.041 186.194 189.466Z" fill="#E0E0E0"/>
<path d="M191.367 258.644C191.367 258.809 177.932 258.951 161.363 258.951C144.794 258.951 131.35 258.809 131.35 258.644C131.35 258.48 144.785 258.326 161.363 258.326C177.941 258.326 191.367 258.469 191.367 258.644Z" fill="#455A64"/>
<path d="M191.367 266.749C191.367 266.925 177.932 267.056 161.363 267.056C144.794 267.056 131.35 266.925 131.35 266.749C131.35 266.574 144.785 266.442 161.363 266.442C177.941 266.442 191.367 266.519 191.367 266.749Z" fill="#455A64"/>
<path d="M191.367 274.745C191.367 274.921 177.932 275.052 161.363 275.052C144.794 275.052 131.35 274.921 131.35 274.745C131.35 274.57 144.785 274.416 161.408 274.416C178.031 274.416 191.367 274.581 191.367 274.745Z" fill="#455A64"/>
<path d="M165.833 282.971C165.833 283.146 158.04 283.277 148.433 283.277C138.826 283.277 131.025 283.146 131.025 282.971C131.025 282.795 138.817 282.664 148.433 282.664C158.049 282.664 165.833 282.806 165.833 282.971Z" fill="#455A64"/>
<path d="M131.35 245.873H172.704V242.204H131.35V245.873Z" fill="#455A64"/>
<path d="M143.63 213.704C148.238 218.544 154.13 221.208 160.225 221.208C166.321 221.208 172.213 218.544 176.821 213.704C175.431 207.965 172.054 201.152 163.846 199.641C165.686 198.657 167.248 197.04 168.338 194.99C169.428 192.94 169.998 190.547 169.977 188.107C169.977 181.207 165.697 175.599 160.37 175.566C155.043 175.534 150.709 181.109 150.681 187.998C150.644 190.46 151.208 192.88 152.302 194.954C153.396 197.027 154.972 198.662 156.83 199.652C148.487 201.152 145.047 207.998 143.63 213.704Z" fill="#FF725E"/>
<path d="M154.537 295.544H131.35V298.972H154.537V295.544Z" fill="#FF725E"/>
<path d="M478.461 176.563L482.415 192.653C482.626 193.375 482.745 194.132 482.768 194.898C482.768 197.165 480.962 198.951 479.156 199.367C477.291 199.612 475.405 199.342 473.639 198.578C473.151 200.889 470.93 201.864 468.989 202.302C460.341 204.254 451.407 202.903 443.418 198.436C446.828 192.514 449.598 186.088 451.662 179.312L471.833 180.408C473.021 180.564 474.223 180.441 475.373 180.046C475.944 179.836 476.455 179.433 476.845 178.884C477.235 178.335 477.488 177.663 477.576 176.947" fill="#FF725E"/>
<path d="M455.346 207.987C455.599 206.191 454.994 198.633 454.994 198.633C454.994 198.633 449.314 197.899 448.971 191.065C448.628 184.23 448.971 168.458 448.971 168.458L459.319 162.324L470.714 172.784L468.989 206.968L456.664 220.309L455.346 207.987Z" fill="#FFBE9D"/>
<path d="M450.1 179.948C450.098 180.121 450.139 180.292 450.217 180.437C450.295 180.583 450.408 180.697 450.539 180.765C450.671 180.833 450.817 180.852 450.957 180.819C451.098 180.787 451.228 180.704 451.33 180.582C451.432 180.46 451.501 180.304 451.53 180.133C451.558 179.963 451.545 179.786 451.49 179.626C451.436 179.465 451.343 179.327 451.224 179.231C451.105 179.134 450.965 179.082 450.822 179.082C450.728 179.081 450.634 179.102 450.546 179.145C450.459 179.188 450.379 179.251 450.312 179.332C450.245 179.412 450.191 179.508 450.155 179.614C450.119 179.72 450.1 179.833 450.1 179.948Z" fill="#263238"/>
<path d="M449.441 178.995C449.54 179.116 450.073 178.568 450.849 178.513C451.626 178.458 452.204 178.919 452.285 178.787C452.366 178.656 452.231 178.524 451.978 178.316C451.634 178.04 451.225 177.91 450.813 177.943C450.404 177.968 450.014 178.157 449.703 178.48C449.441 178.732 449.35 178.952 449.441 178.995Z" fill="#263238"/>
<path d="M458.47 179.948C458.468 180.122 458.509 180.293 458.588 180.438C458.667 180.584 458.779 180.698 458.912 180.766C459.044 180.834 459.19 180.852 459.331 180.818C459.472 180.785 459.601 180.701 459.703 180.578C459.805 180.455 459.874 180.298 459.901 180.127C459.929 179.956 459.914 179.779 459.858 179.618C459.802 179.457 459.708 179.321 459.588 179.225C459.468 179.13 459.327 179.08 459.183 179.082C458.994 179.082 458.813 179.173 458.679 179.336C458.545 179.498 458.47 179.718 458.47 179.948Z" fill="#263238"/>
<path d="M458.01 178.995C458.1 179.116 458.633 178.568 459.409 178.513C460.186 178.458 460.772 178.919 460.854 178.787C460.935 178.656 460.8 178.524 460.538 178.316C460.195 178.044 459.79 177.914 459.382 177.943C458.974 177.973 458.585 178.161 458.271 178.48C458.037 178.732 457.964 178.952 458.01 178.995Z" fill="#263238"/>
<path d="M457.775 187.888C456.589 188.623 455.325 189.153 454.019 189.466C454.307 189.937 454.715 190.279 455.181 190.44C455.646 190.6 456.142 190.57 456.592 190.353C456.806 190.292 457.008 190.179 457.185 190.02C457.362 189.862 457.511 189.661 457.621 189.43C457.732 189.199 457.803 188.943 457.829 188.678C457.856 188.413 457.837 188.144 457.775 187.888Z" fill="#FAFAFA"/>
<path d="M454.994 198.633C457.672 198.499 460.263 197.439 462.461 195.577C462.461 195.577 460.772 200.594 455.12 200.309L454.994 198.633Z" fill="#EB996E"/>
<path d="M487.111 192.445C486.402 192.477 485.698 192.285 485.07 191.886C484.142 191.274 483.371 190.365 482.84 189.257C482.182 187.878 481.626 186.43 481.178 184.931C480.122 181.755 479.373 178.798 478.786 176.651C478.704 176.311 478.623 176.005 478.551 175.709C478.517 175.392 478.469 175.077 478.406 174.767C475.327 160.528 464.998 157.856 462.957 157.856C460.763 157.856 456.926 156.388 451.337 163.442C450.491 164.493 449.776 165.688 449.215 166.99C447.983 168.871 447.132 171.078 446.732 173.431C446.487 174.534 446.444 175.689 446.605 176.815C446.714 176.815 446.732 175.534 447.165 173.529C447.425 172.364 447.788 171.236 448.249 170.167C447.762 172.8 447.961 175.551 448.818 178.042L450.822 177.363L458.045 174.405C457.386 171.711 458.352 168.359 458.894 166.738H458.948C460.592 176.968 469.883 178.042 469.883 178.042L469.422 197.461C478.966 194.986 479.093 182.346 479.029 179.203C479.463 180.977 480.023 183.014 480.727 185.15C481.199 186.673 481.785 188.139 482.479 189.531C483.065 190.713 483.925 191.658 484.953 192.248C485.644 192.645 486.418 192.783 487.174 192.642C487.454 192.61 487.722 192.49 487.95 192.291C487.668 192.32 487.387 192.372 487.111 192.445Z" fill="#FF725E"/>
<path d="M455.21 186.957C454.799 186.843 454.378 186.788 453.955 186.793C453.757 186.793 453.558 186.793 453.522 186.574C453.494 186.311 453.532 186.044 453.63 185.807C453.802 185.194 453.973 184.548 454.163 183.858C454.533 182.467 454.849 181.207 455.066 180.287C455.215 179.801 455.31 179.292 455.346 178.776C455.134 179.231 454.97 179.717 454.858 180.221C454.587 181.119 454.235 182.412 453.865 183.77L453.35 185.731C453.239 186.041 453.213 186.387 453.278 186.716C453.31 186.799 453.356 186.873 453.414 186.931C453.472 186.99 453.539 187.032 453.612 187.056C453.723 187.071 453.835 187.071 453.946 187.056C454.369 187.085 454.794 187.052 455.21 186.957Z" fill="#263238"/>
<path d="M468.312 181.393C466.56 180.977 465.079 180.681 464.574 180.638C464.641 180.278 464.677 179.911 464.682 179.542C464.674 178.359 464.358 177.209 463.779 176.256C463.246 175.369 462.503 174.7 461.648 174.34C460.881 174.009 460.055 173.933 459.256 174.121C458.559 174.291 457.908 174.667 457.359 175.216C456.553 175.972 455.988 177.044 455.761 178.25C455.697 178.573 455.664 178.904 455.662 179.236C455.647 179.348 455.647 179.463 455.662 179.575C455.662 179.575 455.662 179.104 455.861 178.294C456.121 177.146 456.69 176.136 457.477 175.424C458.008 174.938 458.627 174.611 459.283 174.471C460.124 174.286 460.991 174.411 461.773 174.829C462.554 175.248 463.215 175.94 463.67 176.818C464.124 177.696 464.352 178.718 464.323 179.754C464.294 180.791 464.011 181.792 463.508 182.631C463.012 183.466 462.32 184.099 461.522 184.449C460.807 184.77 460.033 184.853 459.283 184.69C458.626 184.547 458.007 184.216 457.477 183.726C456.689 183.02 456.12 182.013 455.861 180.868C455.786 180.545 455.735 180.215 455.707 179.882C455.843 179.882 455.933 179.794 455.933 179.75C455.933 179.707 455.824 179.641 455.671 179.608C455.491 179.588 455.309 179.588 455.129 179.608C454.91 179.606 454.692 179.636 454.479 179.696V179.63C454.475 178.446 454.159 177.294 453.576 176.344C453.045 175.46 452.305 174.791 451.454 174.427C450.684 174.097 449.855 174.021 449.053 174.208C448.21 174.415 447.433 174.909 446.814 175.633C446.195 176.357 445.76 177.28 445.558 178.294C445.494 178.617 445.461 178.947 445.459 179.279C445.444 179.392 445.444 179.506 445.459 179.619C445.459 179.619 445.459 179.148 445.658 178.337C445.918 177.19 446.487 176.18 447.274 175.468C447.805 174.981 448.424 174.655 449.08 174.515C449.696 174.379 450.33 174.408 450.936 174.602C451.542 174.795 452.106 175.148 452.588 175.635C453.069 176.122 453.456 176.731 453.722 177.419C453.988 178.108 454.127 178.859 454.127 179.619C454.126 180.681 453.858 181.717 453.357 182.588C452.857 183.459 452.149 184.124 451.328 184.493C450.609 184.814 449.833 184.897 449.08 184.734C448.423 184.59 447.804 184.26 447.274 183.77C446.486 183.064 445.917 182.057 445.658 180.911C445.477 180.101 445.495 179.619 445.459 179.619C445.445 179.735 445.445 179.853 445.459 179.969C445.461 180.298 445.494 180.625 445.558 180.944C445.784 182.153 446.349 183.23 447.156 183.989C447.709 184.53 448.358 184.905 449.053 185.084C449.855 185.272 450.684 185.196 451.454 184.865C452.303 184.498 453.043 183.83 453.576 182.949C454.114 182.074 454.428 181.026 454.479 179.937C454.698 180.002 454.922 180.032 455.147 180.024C455.322 180.038 455.497 180.038 455.671 180.024C455.673 180.353 455.706 180.68 455.77 180.999C455.965 182.018 456.398 182.947 457.018 183.674C457.638 184.4 458.418 184.894 459.265 185.095C460.064 185.283 460.89 185.207 461.657 184.876C462.51 184.511 463.252 183.843 463.788 182.96C464.16 182.347 464.418 181.645 464.547 180.9C465.025 181.087 466.488 181.503 468.258 181.919C469.553 182.289 470.869 182.541 472.194 182.675C470.932 182.116 469.633 181.688 468.312 181.393Z" fill="#263238"/>
<path d="M471.31 186.673C471.22 185.534 471.325 184.386 471.617 183.299C471.766 182.758 472.032 182.275 472.388 181.901C472.744 181.527 473.176 181.276 473.639 181.174C474.175 181.142 474.702 181.346 475.124 181.748C475.546 182.151 475.833 182.725 475.933 183.365C475.998 184.02 475.9 184.683 475.65 185.269C475.4 185.855 475.011 186.337 474.533 186.651C474.051 186.953 473.519 187.12 472.977 187.139C472.434 187.158 471.895 187.029 471.4 186.76" fill="#FFBE9D"/>
<path d="M472.917 185.698C472.917 185.621 473.224 185.785 473.621 185.698C473.869 185.592 474.084 185.395 474.234 185.134C474.385 184.872 474.464 184.56 474.461 184.241C474.485 184.081 474.48 183.917 474.446 183.759C474.412 183.602 474.349 183.456 474.262 183.332C474.089 183.163 473.869 183.085 473.648 183.113C473.224 183.113 472.926 183.288 472.908 183.2C472.89 183.113 473.097 182.883 473.603 182.719C473.757 182.672 473.919 182.667 474.075 182.705C474.231 182.743 474.378 182.822 474.506 182.938C474.655 183.108 474.767 183.32 474.835 183.554C474.902 183.788 474.923 184.039 474.894 184.285C474.88 184.754 474.734 185.203 474.479 185.555C474.266 185.853 473.97 186.044 473.648 186.092C473.161 186.081 472.917 185.698 472.917 185.698Z" fill="#EB996E"/>
<path d="M494.786 445.971L487.987 440.374L496.555 424.865L506.569 432.926L506.09 433.923C503.923 438.369 494.813 456.31 492.546 458.599C489.964 461.14 494.786 445.971 494.786 445.971Z" fill="#FF725E"/>
<path d="M491.698 458.424C491.571 458.326 494.704 452.466 498.695 445.346C502.686 438.227 506.009 432.521 506.135 432.619C506.262 432.718 503.12 438.578 499.129 445.763C495.138 452.948 491.815 458.545 491.698 458.424Z" fill="#263238"/>
<path d="M496.023 447.384C496.023 447.559 495.598 447.658 495.12 447.702C494.641 447.746 494.217 447.702 494.172 447.527C494.126 447.351 494.542 447.099 495.074 447.066C495.607 447.033 496.041 447.209 496.023 447.384Z" fill="#263238"/>
<path d="M495.923 448.742C495.923 448.918 495.427 448.94 494.876 448.896C494.325 448.852 493.865 448.764 493.856 448.578C493.847 448.392 494.316 448.216 494.903 448.26C495.49 448.304 495.95 448.567 495.923 448.742Z" fill="#263238"/>
<path d="M503.481 437.263C503.417 437.263 503.246 436.968 503.038 436.409C502.758 435.66 502.595 434.854 502.56 434.032C502.525 433.18 502.728 432.338 503.138 431.644C503.472 431.119 503.797 430.976 503.833 431.042C503.869 431.108 503.661 431.382 503.445 431.885C503.181 432.547 503.057 433.277 503.083 434.01C503.127 434.772 503.229 435.528 503.39 436.267C503.508 436.847 503.553 437.23 503.481 437.263Z" fill="#263238"/>
<path d="M494.722 446.377C494.659 446.223 494.903 445.916 495.237 445.621C495.571 445.325 495.878 445.127 495.986 445.248C496.095 445.368 495.923 445.796 495.544 446.136C495.165 446.475 494.777 446.541 494.722 446.377Z" fill="#263238"/>
<path d="M494.199 445.598C494.081 445.489 494.199 444.996 494.506 444.503C494.813 444.01 495.129 443.682 495.246 443.769C495.363 443.857 495.246 444.35 494.939 444.865C494.632 445.379 494.307 445.708 494.199 445.598Z" fill="#263238"/>
<path d="M414.651 458.72V448.753L430.001 448.632L430.127 463.222L429.17 463.298C424.926 463.616 407.572 464.558 404.719 463.539C401.586 462.4 414.651 458.72 414.651 458.72Z" fill="#FF725E"/>
<path d="M404.403 462.62C404.403 462.444 410.164 462.302 417.261 462.302C424.358 462.302 430.118 462.444 430.118 462.62C430.118 462.795 424.367 462.949 417.261 462.949C410.155 462.949 404.403 462.806 404.403 462.62Z" fill="#263238"/>
<path d="M414.38 460.757C414.254 460.845 413.956 460.483 413.649 460.001C413.342 459.519 413.134 459.081 413.234 458.906C413.333 458.731 413.739 459.048 414.064 459.574C414.389 460.1 414.507 460.669 414.38 460.757Z" fill="#263238"/>
<path d="M413.396 461.414C413.261 461.48 412.99 461.031 412.71 460.451C412.43 459.87 412.231 459.355 412.349 459.246C412.466 459.136 412.854 459.509 413.161 460.133C413.468 460.757 413.532 461.349 413.396 461.414Z" fill="#263238"/>
<path d="M425.477 462.553C425.423 462.553 425.549 462.148 425.811 461.633C426.166 460.934 426.621 460.318 427.157 459.815C427.722 459.305 428.411 459.036 429.116 459.049C429.658 459.049 429.947 459.344 429.92 459.41C429.892 459.476 429.585 459.41 429.125 459.498C428.527 459.611 427.961 459.896 427.473 460.33C426.977 460.8 426.52 461.329 426.109 461.907C425.775 462.345 425.54 462.608 425.477 462.553Z" fill="#263238"/>
<path d="M414.335 458.884C414.407 458.731 414.759 458.807 415.139 458.972C415.518 459.136 415.843 459.345 415.816 459.52C415.789 459.695 415.41 459.761 414.967 459.575C414.525 459.388 414.227 459.038 414.335 458.884Z" fill="#263238"/>
<path d="M414.579 457.921C414.579 457.745 415.003 457.603 415.482 457.614C415.96 457.625 416.385 457.778 416.385 457.954C416.385 458.129 415.987 458.261 415.482 458.261C414.976 458.261 414.561 458.096 414.579 457.921Z" fill="#263238"/>
<path d="M453.477 228.578L436.8 221.842C436.8 221.842 429.441 247.56 427.184 247.811C414.687 249.191 401.315 244.164 396.62 242.182C396.15 241.535 395.608 240.758 395.004 239.805C394.484 238.985 394.083 238.062 393.821 237.078C393.46 235.871 393.235 234.611 393.153 233.332C393.172 233.085 393.128 232.837 393.026 232.623C392.924 232.408 392.77 232.237 392.584 232.134C392.398 232.03 392.191 231.999 391.99 232.045C391.79 232.091 391.606 232.211 391.464 232.39C390.931 233.244 390.787 236.486 392.024 239.991C393.261 243.496 388.891 240.703 387.284 239.717C385.676 238.732 380.593 235.993 379.952 236.355C379.049 236.891 379.311 238.206 380.936 239.137C382.561 240.068 387.256 243.277 386.796 244.285C386.335 245.292 378.209 240.155 378.209 240.155C378.209 240.155 376.62 238.721 376.051 239.86C375.022 241.908 383.979 246.585 384.846 247.001C385.442 247.286 384.972 248.403 384.34 248.096C383.708 247.79 376.34 242.762 375.266 244.81C374.453 246.399 382.615 248.731 383.672 250.791C384.728 252.85 377.622 248.26 376.9 249.827C376.629 250.407 376.485 250.922 380.873 252.806C384.094 254.019 387.367 255.017 390.679 255.796V255.851C390.679 255.851 434.515 279.629 443.951 256.716C453.955 232.401 453.477 228.578 453.477 228.578Z" fill="#FFBE9D"/>
<path d="M443.274 285.095C443.274 285.095 432.646 370.768 434.172 374.909C435.698 379.049 490.352 449.388 490.352 449.388L503.138 422.816C503.138 422.816 460.023 364.438 460.348 362.871C460.673 361.305 475.626 277.987 475.626 277.987L443.274 285.095Z" fill="#455A64"/>
<path d="M445.594 390.911L454.578 366.979L463.562 343.047L448.429 374.865L445.594 390.911Z" fill="#263238"/>
<path d="M450.949 369.564C450.99 369.875 451.008 370.19 451.003 370.506C451.003 371.185 451.003 372.094 451.057 373.222V373.134C454.479 377.822 462.064 388.468 470.822 400.911L486.036 422.663L490.605 429.311C491.111 430.056 491.508 430.67 491.824 431.13C491.978 431.332 492.112 431.556 492.221 431.798C492.047 431.623 491.887 431.428 491.743 431.217L490.452 429.465C489.296 427.877 487.743 425.664 485.756 422.959L470.407 401.327C461.657 388.895 454.154 378.14 450.876 373.31C450.876 372.214 450.876 371.272 450.922 370.593C450.892 370.25 450.901 369.904 450.949 369.564Z" fill="#263238"/>
<path d="M499.038 417.318C499.165 417.417 496.176 423.167 492.375 430.155C488.573 437.143 485.395 442.74 485.278 442.641C485.16 442.543 488.14 436.792 491.941 429.804C495.743 422.816 498.921 417.22 499.038 417.318Z" fill="#263238"/>
<path d="M439.427 317.275C439.527 316.376 448.014 293.178 448.014 293.178L443.897 286.136L443.165 285.938L439.427 317.275Z" fill="#263238"/>
<path d="M451.599 284.274L443.166 285.982L448.014 293.222C440.186 314.712 424.015 360.21 422.073 374.876C419.491 394.306 409.766 454.996 410.742 455.927C411.717 456.858 434.136 455.927 434.136 455.927L448.43 374.876L480.032 308.479C483.963 300.211 485.111 290.422 483.237 281.152L482.605 277.998" fill="#455A64"/>
<path d="M426.335 446.924C426.34 446.773 426.355 446.623 426.38 446.475C426.38 446.146 426.47 445.708 426.543 445.149L427.238 440.078C427.879 435.642 428.791 429.279 429.947 421.458C431.102 413.638 432.484 404.229 434.01 393.846C434.804 388.655 435.635 383.2 436.493 377.548C436.71 376.146 436.944 374.722 437.17 373.288C437.287 372.565 437.396 371.853 437.531 371.097C437.603 370.736 437.658 370.363 437.748 370.002L438.082 368.906C438.985 366.124 440.014 363.43 441.026 360.593C449.197 338.326 456.8 318.282 462.298 303.781L468.863 286.618C469.63 284.624 470.244 283.069 470.669 281.974C470.867 281.47 471.03 281.064 471.156 280.769C471.204 280.626 471.265 280.491 471.337 280.363L471.201 280.802L470.768 282.028L469.043 286.727C467.499 290.845 465.296 296.76 462.605 303.989C457.188 318.545 449.639 338.611 441.477 360.878C440.466 363.66 439.445 366.42 438.542 369.147L438.217 370.155C438.127 370.506 438.082 370.867 438.01 371.25C437.874 371.951 437.766 372.685 437.64 373.441C437.414 374.876 437.188 376.3 436.962 377.702C436.059 383.342 435.256 388.797 434.452 393.978C432.881 404.361 431.464 413.693 430.272 421.568C429.08 429.443 428.114 435.741 427.446 440.188C427.102 442.378 426.832 444.043 426.651 445.237C426.552 445.785 426.479 446.223 426.425 446.551C426.407 446.679 426.376 446.804 426.335 446.924Z" fill="#263238"/>
<path d="M435.473 448.129C435.473 448.304 430.055 448.326 423.455 448.129C416.854 447.932 411.437 447.723 411.437 447.548C411.437 447.373 416.854 447.351 423.464 447.493C430.073 447.636 435.482 447.954 435.473 448.129Z" fill="#263238"/>
<path d="M443.165 285.971L443.49 286.902L484.005 282.926L482.578 277.987L443.165 285.971Z" fill="#263238"/>
<path d="M459.897 205.906L457.188 219.181L457.089 209.63L457.296 207.516L457.54 205.906L453.928 204.427L452.068 207.943H451.527C451.527 207.943 436.944 206.18 431.843 229.553L427.175 243.408L441.306 251.952V253.047L442.208 286.114L483.021 278.096C483.183 270.67 476.935 257.22 478.316 250.495L483.021 227.494L476.854 206.059L472.583 206.223L470.208 202.817L459.942 205.906" fill="#263238"/>
<path d="M441.558 251.754C441.23 251.643 440.923 251.453 440.655 251.196C439.902 250.568 439.261 249.764 438.768 248.83C438.021 247.431 437.681 245.77 437.802 244.109C437.871 242.079 438.423 240.116 439.391 238.458C440.143 237.158 441.131 236.085 442.281 235.325L442.154 235.522C442.497 232.488 442.804 229.882 443.057 228.031C443.143 227.043 443.294 226.065 443.509 225.106C443.509 226.103 443.449 227.099 443.328 228.085C443.174 229.936 442.931 232.565 442.624 235.599V235.73L442.515 235.807C441.289 236.654 440.258 237.861 439.516 239.318C438.775 240.774 438.347 242.433 438.272 244.142C438.135 245.703 438.42 247.275 439.084 248.622C439.536 249.534 440.117 250.342 440.8 251.01C441.314 251.492 441.567 251.711 441.558 251.754Z" fill="#455A64"/>
<path d="M443.12 229.509C443.003 229.575 442.606 228.874 442.217 227.932C441.829 226.99 441.621 226.169 441.739 226.103C441.856 226.037 442.253 226.738 442.642 227.68C443.03 228.622 443.21 229.378 443.12 229.509Z" fill="#455A64"/>
<path d="M401.369 220.112L529.747 250.024C538.902 252.16 544.663 262.302 543.625 273.857C543.61 274.02 543.586 274.181 543.552 274.339C543.125 277.071 542.255 279.672 540.991 281.992C539.727 284.312 538.096 286.304 536.192 287.852C534.289 289.4 532.15 290.473 529.901 291.01C527.652 291.546 525.338 291.535 523.092 290.977L397.279 260.177L369.532 233.277L401.369 220.112Z" fill="#FF725E"/>
<path d="M401.369 220.112C401.369 220.112 408.376 223.299 406.931 231.448C405.487 239.597 398.706 239.257 398.706 239.257C398.706 239.257 405.297 241.032 403.473 252.456C402.29 259.816 397.279 260.199 397.279 260.199L369.532 233.277L401.369 220.112Z" fill="#E0E0E0"/>
<path d="M375.564 239.126C378.273 237.494 379.221 233.146 378.273 229.674L369.559 233.277L375.564 239.126Z" fill="#455A64"/>
<path d="M527.995 271.042L527.661 270.988L526.668 270.791L522.885 269.969C519.598 269.246 514.858 268.162 508.989 266.793C497.251 264.055 481.097 260.122 463.256 255.654L417.586 244.131L403.744 240.615L399.988 239.641L399.013 239.367C398.898 239.347 398.786 239.31 398.678 239.257C398.794 239.263 398.909 239.281 399.022 239.312L400.006 239.52L403.78 240.396L417.676 243.748L463.382 255.106C481.215 259.575 497.377 263.573 509.088 266.409L522.948 269.761L526.713 270.692L527.697 270.944C527.799 270.962 527.9 270.995 527.995 271.042Z" fill="#455A64"/>
<path d="M523.092 290.977C525.338 291.535 527.652 291.546 529.901 291.01C532.15 290.473 534.289 289.4 536.192 287.852C538.096 286.304 539.727 284.312 540.991 281.992C542.254 279.672 543.125 277.071 543.552 274.339C543.586 274.181 543.61 274.02 543.625 273.857C544.663 262.302 538.902 252.16 529.747 250.024L523.092 290.977Z" fill="#455A64"/>
<path d="M472.068 226.344C472.068 226.344 464.258 256.234 462.082 256.891C449.91 260.659 436.05 258.26 431.166 257.198C430.615 256.65 429.965 255.971 429.251 255.161C428.636 254.448 428.123 253.615 427.735 252.696C427.217 251.577 426.831 250.375 426.588 249.126C426.579 248.874 426.504 248.632 426.374 248.434C426.244 248.237 426.066 248.095 425.866 248.028C425.665 247.961 425.452 247.973 425.257 248.062C425.063 248.151 424.896 248.312 424.782 248.523C424.358 249.465 424.647 252.696 426.317 255.917C426.317 255.917 416.529 263.452 414.389 263.386C412.249 263.321 406.119 263.135 406.76 264.164C407.401 265.194 414.389 266.607 414.389 266.607L427.03 271.809C427.03 271.809 473.404 286.946 479.752 262.499C483.634 247.516 486.325 238.699 486.93 235.117L472.068 226.344Z" fill="#FFBE9D"/>
<path d="M476.917 206.103C476.917 206.103 487.12 208.294 487.517 228.556C487.706 240.879 485.517 253.084 481.124 264.197L463.174 252.762C467.206 242.976 470.238 232.629 472.203 221.952L476.862 206.092L476.917 206.103Z" fill="#263238"/>
<path d="M471.68 223.08C471.68 223.5 471.641 223.919 471.562 224.329C471.463 225.117 471.292 226.256 471.039 227.614C470.376 231.259 469.541 234.853 468.538 238.381C467.529 241.908 466.35 245.361 465.007 248.721C464.492 250.013 464.05 251.043 463.725 251.733C463.577 252.12 463.395 252.487 463.183 252.828C463.266 252.422 463.393 252.031 463.562 251.667C463.869 250.824 464.258 249.794 464.709 248.589C465.666 245.982 466.912 242.335 468.095 238.228C469.278 234.12 470.136 230.32 470.714 227.549C470.979 226.256 471.204 225.161 471.391 224.263C471.447 223.856 471.544 223.459 471.68 223.08Z" fill="#455A64"/>
</svg>
